<?xml version="1.0"?>
<svg xmlns="http://www.w3.org/2000/svg" xmlns:xlink="http://www.w3.org/1999/xlink" version="1.1" id="Capa_1" x="0px" y="0px" viewBox="0 0 480 480" style="enable-background:new 0 0 480 480;" xml:space="preserve" width="512px" height="512px" class=""><g><path style="fill:#54BF8E" d="M120,0h240c13.6,0,24,10.4,24,24v432c0,13.6-10.4,24-24,24H120c-13.6,0-24-10.4-24-24V24  C96,10.4,106.4,0,120,0z" data-original="#B8A787" class="active-path" data-old_color="#54bf8e"/><g>
	<path style="fill:#F3F3F3" d="M296,232h-32v-16h32c4.8,0,8-3.2,8-8s-3.2-8-8-8h-24v-16h24c13.6,0,24,10.4,24,24S309.6,232,296,232   z" data-original="#897E6B" class="" data-old_color="#f3f3f3"/>
	<path style="fill:#F3F3F3" d="M384,400H96v56c0,13.6,10.4,24,24,24h240c13.6,0,24-10.4,24-24V400z" data-original="#897E6B" class="" data-old_color="#f3f3f3"/>
</g><circle style="fill:#54BF8E" cx="240" cy="440" r="16" data-original="#B8A787" class="active-path" data-old_color="#54bf8e"/><path style="fill:#F3F3F3" d="M384,48H96V24c0-13.6,10.4-24,24-24h240c13.6,0,24,10.4,24,24V48z" data-original="#897E6B" class="" data-old_color="#f3f3f3"/><path style="fill:#F3F3F3" d="M192,248L192,248c-15.2-15.2-24-36-24-56.8V176h112v15.2c0,21.6-8.8,41.6-23.2,56.8H256H192z" data-original="#BFBD9F" class="" data-old_color="#f3f3f3"/><g>
	<path style="fill:#F3F3F3" d="M192,152h-16v-9.6c0-6.4,2.4-12.8,7.2-16.8l6.4-6.4c1.6-1.6,2.4-3.2,2.4-5.6v-2.4   c0-2.4-0.8-4-2.4-5.6l-6.4-6.4c-4.8-5.6-7.2-11.2-7.2-17.6V72h16v9.6c0,2.4,0.8,4,2.4,5.6l6.4,6.4c4.8,4.8,7.2,10.4,7.2,16.8v2.4   c0,6.4-2.4,12.8-7.2,16.8l-6.4,6.4c-1.6,1.6-2.4,3.2-2.4,5.6V152z" data-original="#897E6B" class="" data-old_color="#f3f3f3"/>
	<path style="fill:#F3F3F3" d="M224,152h-16v-9.6c0-6.4,2.4-12.8,7.2-16.8l6.4-6.4c1.6-1.6,2.4-3.2,2.4-5.6v-2.4   c0-2.4-0.8-4-2.4-5.6l-6.4-6.4c-4.8-5.6-7.2-11.2-7.2-17.6V72h16v9.6c0,2.4,0.8,4,2.4,5.6l6.4,6.4c4.8,4.8,7.2,10.4,7.2,16.8v2.4   c0,6.4-2.4,12.8-7.2,16.8l-6.4,6.4c-1.6,1.6-2.4,3.2-2.4,5.6V152z" data-original="#897E6B" class="" data-old_color="#f3f3f3"/>
	<rect x="120" y="360" style="fill:#F3F3F3" width="240" height="16" data-original="#897E6B" class="" data-old_color="#f3f3f3"/>
	<rect x="120" y="328" style="fill:#F3F3F3" width="128" height="16" data-original="#897E6B" class="" data-old_color="#f3f3f3"/>
	<rect x="120" y="296" style="fill:#F3F3F3" width="128" height="16" data-original="#897E6B" class="" data-old_color="#f3f3f3"/>
</g><path style="fill:#F3F3F3" d="M288,287.2v-5.6c0-6.4,2.4-12.8,7.2-16.8l1.6-1.6c4.8-4.8,10.4-7.2,16.8-7.2h12  c6.4,0,12.8,2.4,16.8,7.2l1.6,1.6c4.8,4.8,7.2,10.4,7.2,16.8v5.6c0,5.6-1.6,10.4-5.6,15.2L320,336l-26.4-33.6  C289.6,298.4,288,292.8,288,287.2z" data-original="#BFBD9F" class="" data-old_color="#f3f3f3"/></g> </svg>
