<?xml version="1.0"?>
<svg xmlns="http://www.w3.org/2000/svg" xmlns:xlink="http://www.w3.org/1999/xlink" version="1.1" id="Layer_1" x="0px" y="0px" viewBox="0 0 512 512" style="enable-background:new 0 0 512 512;" xml:space="preserve" width="512px" height="512px" class=""><g><path d="M512,99.04V73.6c0-15.84-12.96-28.8-28.8-28.8H115.04H28.8C12.96,44.8,0,57.76,0,73.6v25.44H512z" data-original="#000000" class=""/><g>
	
	<rect x="8" y="107.2" style="fill:#F3F3F3" width="496" height="352" data-original="#FFFFFF" class="active-path" data-old_color="#54BF8E"/>
</g><path style="fill:#EFEFEF;" d="M496,115.2v336H16v-336L496,115.2 M512,99.2H0v368h512V99.2L512,99.2z" data-original="#EFEFEF" class=""/><path style="fill:#E0E0E0;" d="M488,123.2v320H24v-320L488,123.2 M492,119.2H20v328h472V119.2L492,119.2z" data-original="#E0E0E0" class=""/><circle style="fill:#FF3000" cx="40.48" cy="72" r="8.16" data-original="#FF0000" class="" data-old_color="#FF2800"/><circle style="fill:#54BF8E" cx="65.12" cy="72" r="8.16" data-original="#22ACDD" class="" data-old_color="#54bf8e"/><g>
	<circle style="fill:#F3F3F3" cx="89.6" cy="72" r="8.16" data-original="#FFFFFF" class="active-path" data-old_color="#54BF8E"/>
	<path style="fill:#F3F3F3" d="M428.32,86.4H170.88c-7.84,0-14.4-6.4-14.4-14.4l0,0c0-7.84,6.4-14.4,14.4-14.4h257.44   c7.84,0,14.4,6.4,14.4,14.4l0,0C442.56,79.84,436.16,86.4,428.32,86.4z" data-original="#FFFFFF" class="active-path" data-old_color="#54BF8E"/>
</g><path d="M180.64,65.44l1.92,7.52c0.48,1.6,0.8,3.2,1.12,4.8h0.16c0.32-1.44,0.8-3.04,1.28-4.64l2.4-7.52h2.24l2.24,7.52  c0.48,1.76,0.96,3.36,1.28,4.8h0.16c0.32-1.44,0.64-3.04,1.12-4.8l2.08-7.52h2.72l-4.8,14.88h-2.4l-2.24-7.04  c-0.48-1.6-0.96-3.2-1.28-4.96l0,0c-0.32,1.76-0.8,3.36-1.28,4.96l-2.4,7.04h-2.4l-4.48-14.88h2.56V65.44z" data-original="#000000" class=""/><path d="M203.52,65.44l1.92,7.52c0.48,1.6,0.8,3.2,1.12,4.8h0.16c0.32-1.44,0.8-3.04,1.28-4.64l2.4-7.52h2.24l2.24,7.52  c0.48,1.76,0.96,3.36,1.28,4.8h0.16c0.32-1.44,0.64-3.04,1.12-4.8l2.08-7.52h2.72l-4.8,14.88h-2.4l-2.24-7.36  c-0.48-1.6-0.96-3.2-1.28-4.96l0,0c-0.32,1.76-0.8,3.36-1.28,4.96l-2.4,7.04h-2.4l-4.48-14.88h2.56V65.44z" data-original="#000000" class=""/><path d="M226.56,65.44l1.92,7.52c0.48,1.6,0.8,3.2,1.12,4.8h0.16c0.32-1.44,0.8-3.04,1.28-4.64l2.4-7.52h2.24l2.24,7.52  c0.48,1.76,0.96,3.36,1.28,4.8h0.16c0.32-1.44,0.64-3.04,1.12-4.8l2.08-7.52h2.72l-4.8,14.88h-2.4l-2.24-7.04  c-0.48-1.6-0.96-3.2-1.28-4.96l0,0c-0.32,1.76-0.8,3.36-1.28,4.96l-2.4,7.04h-2.4L224,65.6h2.56V65.44z" data-original="#000000" class=""/><path d="M246.24,78.72c0-1.12,0.8-1.92,1.92-1.92s1.76,0.8,1.76,1.92c0,1.12-0.64,1.92-1.92,1.92  C246.88,80.64,246.24,79.84,246.24,78.72z" data-original="#000000" class=""/><g>
	<rect x="461.28" y="70.4" style="fill:#F3F3F3" width="23.04" height="4" data-original="#FFFFFF" class="active-path" data-old_color="#54BF8E"/>
	<polygon style="fill:#F3F3F3" points="474.56,84.32 471.68,81.44 480.8,72.32 471.68,63.2 474.56,60.48 486.56,72.32  " data-original="#FFFFFF" class="active-path" data-old_color="#54BF8E"/>
</g><polygon style="fill:#C9C9C9;" points="429.76,67.36 422.24,77.28 414.56,67.36 " data-original="#C9C9C9" class=""/><rect x="140.8" y="344.96" style="fill:#54BF8E" width="230.24" height="11.2" data-original="#22ACDD" class="" data-old_color="#54bf8e"/><g>
	<path style="fill:#54BF8E" d="M140.8,216.96c6.08-0.96,13.92-1.92,24-1.92c12.32,0,21.44,2.88,27.2,8   c5.28,4.64,8.48,11.68,8.48,20.32c0,8.8-2.56,15.68-7.52,20.8c-6.56,7.04-17.44,10.72-29.6,10.72c-3.68,0-7.2-0.16-10.08-0.8v38.88   H140.8V216.96z M153.44,263.68c2.72,0.64,6.24,0.96,10.4,0.96c15.2,0,24.32-7.36,24.32-20.8c0-12.8-9.12-19.04-22.88-19.04   c-5.44,0-9.6,0.48-11.84,0.96V263.68z" data-original="#F33052" class="" data-old_color="#54bf8e"/>
	<path style="fill:#54BF8E" d="M230.08,215.84v40.64h46.88v-40.64h12.64v97.12h-12.64v-45.44h-46.88v45.44H217.6v-97.12H230.08z" data-original="#F33052" class="" data-old_color="#54bf8e"/>
	<path style="fill:#54BF8E" d="M311.36,216.96c6.08-0.96,13.92-1.92,24-1.92c12.32,0,21.44,2.88,27.2,8   c5.28,4.64,8.48,11.68,8.48,20.32c0,8.8-2.56,15.68-7.52,20.8c-6.56,7.04-17.44,10.72-29.6,10.72c-3.68,0-7.2-0.16-10.08-0.8v38.88   h-12.48L311.36,216.96L311.36,216.96z M323.84,263.68c2.72,0.64,6.24,0.96,10.4,0.96c15.2,0,24.32-7.36,24.32-20.8   c0-12.8-9.12-19.04-22.88-19.04c-5.44,0-9.6,0.48-11.84,0.96V263.68z" data-original="#F33052" class="" data-old_color="#54bf8e"/>
</g></g> </svg>
