<?xml version="1.0"?>
<svg xmlns="http://www.w3.org/2000/svg" xmlns:xlink="http://www.w3.org/1999/xlink" version="1.1" id="Capa_1" x="0px" y="0px" viewBox="0 0 512 512" style="enable-background:new 0 0 512 512;" xml:space="preserve" width="512px" height="512px" class=""><g><g>
	<g>
		<path d="M482,35.855H30c-16.569,0-30,13.431-30,30v225.471h512V65.855C512,49.286,498.569,35.855,482,35.855z M257.913,230.74    c0,12.135-8.785,21.642-20,21.642H81.438c-11.215,0-20-9.506-20-21.642v-123.5c0-12.136,8.785-21.642,20-21.642h156.475    c11.215,0,20,9.506,20,21.642V230.74z M435.562,246.302H304.459c-8.284,0-15-6.716-15-15s6.716-15,15-15h131.103    c8.284,0,15,6.716,15,15S443.846,246.302,435.562,246.302z M435.562,183.99H304.459c-8.284,0-15-6.716-15-15s6.716-15,15-15    h131.103c8.284,0,15,6.716,15,15S443.846,183.99,435.562,183.99z M435.562,121.677H304.459c-8.284,0-15-6.716-15-15    s6.716-15,15-15h131.103c8.284,0,15,6.716,15,15S443.846,121.677,435.562,121.677z" data-original="#000000" class="active-path" data-old_color="#f3f3f3" fill="#f3f3f3"/>
	</g>
</g><g>
	<g>
		<path d="M0,321.326v32.803c0,16.569,13.431,30,30,30h181.494v62.016h-37.587c-8.284,0-15,6.716-15,15s6.716,15,15,15h164.187    c8.284,0,15-6.716,15-15s-6.716-15-15-15h-37.587v-62.016H482c16.569,0,30-13.431,30-30v-32.803H0z" data-original="#000000" class="active-path" data-old_color="#f3f3f3" fill="#f3f3f3"/>
	</g>
</g></g> </svg>
